<svg xmlns="http://www.w3.org/2000/svg" xmlns:xlink="http://www.w3.org/1999/xlink" width="1240" height="928.4"><rect width="1240" height="928.4" rx="5" ry="5" class="a"/><svg y="0%" x="0%"><circle cx="20" cy="20" r="6" fill="#ff5f58"/><circle cx="40" cy="20" r="6" fill="#ffbd2e"/><circle cx="60" cy="20" r="6" fill="#18c132"/></svg><svg height="868.4" viewBox="0 0 120 86.84" width="1200" x="15" xmlns="http://www.w3.org/2000/svg" xmlns:xlink="http://www.w3.org/1999/xlink" y="50"><style>@keyframes k{0%{transform:translateX(0)}4.6%{transform:translateX(-360px)}11.7%{transform:translateX(-720px)}18.7%{transform:translateX(-1080px)}20.9%{transform:translateX(-1320px)}58.8%{transform:translateX(-1440px)}71.4%{transform:translateX(-1560px)}73.8%{transform:translateX(-1800px)}88.7%{transform:translateX(-1920px)}87%{transform:translateX(-2160px)}to{transform:translateX(-2280px)}}.a{fill:#282d35}.f{fill:#71bef2}.f,.g,.h{white-space:pre}.g{fill:#a8cc8c;font-weight:700}.h{fill:#b9c0cb}</style><g font-family="Monaco,Consolas,Menlo,'Bitstream Vera Sans Mono','Powerline Symbols',monospace" font-size="1.67"><defs><symbol id="1"><text y="1.67" class="f">#</text><text x="2.004" y="1.67" class="f">OLM</text><text x="6.012" y="1.67" class="f">is</text><text x="9.018" y="1.67" class="f">available</text></symbol><symbol id="2"><text y="1.67" class="g">$</text><text x="2.004" y="1.67" class="g">kubectl</text><text x="10.02" y="1.67" class="g">get</text><text x="14.028" y="1.67" class="g">deployments</text><text x="26.052" y="1.67" class="g">-n</text><text x="29.058" y="1.67" class="g">olmv1-system</text></symbol><symbol id="3"><text y="1.67" class="h">NAME</text><text x="41.082" y="1.67" class="h">READY</text><text x="49.098" y="1.67" class="h">UP-TO-DATE</text><text x="62.124" y="1.67" class="h">AVAILABLE</text><text x="74.148" y="1.67" class="h">AGE</text></symbol><symbol id="4"><text y="1.67" class="h">catalogd-controller-manager</text><text x="41.082" y="1.67" class="h">2/2</text><text x="49.098" y="1.67" class="h">2</text><text x="62.124" y="1.67" class="h">2</text><text x="74.148" y="1.67" class="h">69s</text></symbol><symbol id="5"><text y="1.67" class="h">operator-controller-controller-manager</text><text x="41.082" y="1.67" class="h">2/2</text><text x="49.098" y="1.67" class="h">2</text><text x="62.124" y="1.67" class="h">2</text><text x="74.148" y="1.67" class="h">69s</text></symbol><symbol id="6"><text y="1.67" class="f">#</text><text x="2.004" y="1.67" class="f">catalog</text><text x="10.02" y="1.67" class="f">&quot;operatorhubio&quot;</text><text x="26.052" y="1.67" class="f">reports</text><text x="34.068" y="1.67" class="f">Serving</text><text x="42.084" y="1.67" class="f">as</text><text x="45.09" y="1.67" class="f">True</text><text x="50.1" y="1.67" class="f">with</text><text x="55.11" y="1.67" class="f">Reason</text><text x="62.124" y="1.67" class="f">Available</text></symbol><symbol id="7"><text y="1.67" class="g">$</text><text x="2.004" y="1.67" class="g">kubectl</text><text x="10.02" y="1.67" class="g">get</text><text x="14.028" y="1.67" class="g">clustercatalog</text><text x="29.058" y="1.67" class="g">operatorhubio</text><text x="43.086" y="1.67" class="g">-o</text><text x="46.092" y="1.67" class="g">jsonpath=&apos;{.status.conditions[?(@.type==&quot;Serving&quot;)]}&apos;</text><text x="100.2" y="1.67" class="g">|</text><text x="102.204" y="1.67" class="g">jq</text><text x="105.21" y="1.67" class="g">.</text></symbol><symbol id="8"><text y="1.67" class="h">{&quot;lastTransitionTime&quot;:&quot;2026-08-03T18:19:49Z&quot;,&quot;message&quot;:&quot;Serving</text><text x="64.128" y="1.67" class="h">desired</text><text x="72.144" y="1.67" class="h">content</text><text x="80.16" y="1.67" class="h">from</text><text x="85.17" y="1.67" class="h">resolved</text><text x="94.188" y="1.67" class="h">source&quot;,&quot;observedGeneratio</text></symbol><symbol id="9"><text y="1.67" class="h">n&quot;:1,&quot;reason&quot;:&quot;Available&quot;,&quot;status&quot;:&quot;True&quot;,&quot;type&quot;:&quot;Serving&quot;}</text></symbol><symbol id="10"><text y="1.67" class="f">#</text><text x="2.004" y="1.67" class="f">catalog</text><text x="10.02" y="1.67" class="f">&quot;operatorhubio&quot;</text><text x="26.052" y="1.67" class="f">reports</text><text x="34.068" y="1.67" class="f">Progressing</text><text x="46.092" y="1.67" class="f">as</text><text x="49.098" y="1.67" class="f">True</text></symbol><symbol id="11"><text y="1.67" class="g">$</text><text x="2.004" y="1.67" class="g">kubectl</text><text x="10.02" y="1.67" class="g">get</text><text x="14.028" y="1.67" class="g">clustercatalog</text><text x="29.058" y="1.67" class="g">operatorhubio</text><text x="43.086" y="1.67" class="g">-o</text><text x="46.092" y="1.67" class="g">jsonpath=&apos;{.status.conditions[?(@.type==&quot;Progressing&quot;)]}&apos;</text><text x="104.208" y="1.67" class="g">|</text><text x="106.212" y="1.67" class="g">jq</text><text x="109.218" y="1.67" class="g">.</text></symbol><symbol id="12"><text y="1.67" class="h">{</text></symbol><symbol id="13"><text x="2.004" y="1.67" class="h">&quot;lastTransitionTime&quot;:</text><text x="24.048" y="1.67" class="h">&quot;2026-08-03T18:19:49Z&quot;,</text></symbol><symbol id="14"><text x="2.004" y="1.67" class="h">&quot;message&quot;:</text><text x="13.026" y="1.67" class="h">&quot;Successfully</text><text x="27.054" y="1.67" class="h">unpacked</text><text x="36.072" y="1.67" class="h">and</text><text x="40.08" y="1.67" class="h">stored</text><text x="47.094" y="1.67" class="h">content</text><text x="55.11" y="1.67" class="h">from</text><text x="60.12" y="1.67" class="h">resolved</text><text x="69.138" y="1.67" class="h">source&quot;,</text></symbol><symbol id="15"><text x="2.004" y="1.67" class="h">&quot;observedGeneration&quot;:</text><text x="24.048" y="1.67" class="h">1,</text></symbol><symbol id="16"><text x="2.004" y="1.67" class="h">&quot;reason&quot;:</text><text x="12.024" y="1.67" class="h">&quot;Succeeded&quot;,</text></symbol><symbol id="17"><text x="2.004" y="1.67" class="h">&quot;status&quot;:</text><text x="12.024" y="1.67" class="h">&quot;True&quot;,</text></symbol><symbol id="18"><text x="2.004" y="1.67" class="h">&quot;type&quot;:</text><text x="10.02" y="1.67" class="h">&quot;Progressing&quot;</text></symbol><symbol id="19"><text y="1.67" class="h">}</text></symbol><symbol id="20"><text y="1.67" class="f">#</text><text x="2.004" y="1.67" class="f">catalog</text><text x="10.02" y="1.67" class="f">&quot;operatorhubio&quot;</text><text x="26.052" y="1.67" class="f">contains</text><text x="35.07" y="1.67" class="f">some</text><text x="40.08" y="1.67" class="f">packages</text></symbol><symbol id="21"><text y="1.67" class="g">$</text><text x="2.004" y="1.67" class="g">kubectl</text><text x="10.02" y="1.67" class="g">port-forward</text><text x="23.046" y="1.67" class="g">-n</text><text x="26.052" y="1.67" class="g">olmv1-system</text><text x="39.078" y="1.67" class="g">pod/catalogd-controller-manager-55585757fc-llfhx</text><text x="88.176" y="1.67" class="g">43183:8443</text><text x="99.198" y="1.67" class="g">&amp;</text></symbol><symbol id="22"><text y="1.67" class="g">$</text><text x="2.004" y="1.67" class="g">set</text><text x="6.012" y="1.67" class="g">-o</text><text x="9.018" y="1.67" class="g">pipefail;</text><text x="19.038" y="1.67" class="g">curl</text><text x="24.048" y="1.67" class="g">-sS</text><text x="28.056" y="1.67" class="g">-k</text><text x="31.062" y="1.67" class="g">--compressed</text><text x="44.088" y="1.67" class="g">--fail</text><text x="51.102" y="1.67" class="g">https://127.0.0.1:43183/catalogs/operatorhubio/api/v1/all</text><text x="109.218" y="1.67" class="g">|</text><text x="111.222" y="1.67" class="g">jq</text><text x="114.228" y="1.67" class="g">&apos;objec</text></symbol><symbol id="23"><text y="1.67" class="h">&quot;susql-operator&quot;</text></symbol><symbol id="24"><text y="1.67" class="h">&quot;synapse-operator&quot;</text></symbol><symbol id="25"><text y="1.67" class="h">&quot;t8c&quot;</text></symbol><symbol id="26"><text y="1.67" class="h">&quot;tagger&quot;</text></symbol><symbol id="27"><text y="1.67" class="h">&quot;tektoncd-operator&quot;</text></symbol><symbol id="28"><text y="1.67" class="h">&quot;telegraf-operator&quot;</text></symbol><symbol id="29"><text y="1.67" class="h">&quot;tempo-operator&quot;</text></symbol><symbol id="30"><text y="1.67" class="h">&quot;temporal-operator&quot;</text></symbol><symbol id="31"><text y="1.67" class="h">&quot;tf-controller&quot;</text></symbol><symbol id="32"><text y="1.67" class="h">&quot;tf-operator&quot;</text></symbol><symbol id="33"><text y="1.67" class="h">&quot;tidb-operator&quot;</text></symbol><symbol id="34"><text y="1.67" class="h">&quot;topolvm-operator&quot;</text></symbol><symbol id="35"><text y="1.67" class="h">&quot;traefikee-operator&quot;</text></symbol><symbol id="36"><text y="1.67" class="h">&quot;trident-operator&quot;</text></symbol><symbol id="37"><text y="1.67" class="h">&quot;trivy-operator&quot;</text></symbol><symbol id="38"><text y="1.67" class="h">&quot;trustee-operator&quot;</text></symbol><symbol id="39"><text y="1.67" class="h">&quot;trustify-operator&quot;</text></symbol><symbol id="40"><text y="1.67" class="h">&quot;ublhub-operator&quot;</text></symbol><symbol id="41"><text y="1.67" class="h">&quot;universal-crossplane&quot;</text></symbol><symbol id="42"><text y="1.67" class="h">&quot;varnish-operator&quot;</text></symbol><symbol id="43"><text y="1.67" class="h">&quot;vast-csi-operator&quot;</text></symbol><symbol id="44"><text y="1.67" class="h">&quot;vault&quot;</text></symbol><symbol id="45"><text y="1.67" class="h">&quot;vault-helm&quot;</text></symbol><symbol id="46"><text y="1.67" class="h">&quot;verticadb-operator&quot;</text></symbol><symbol id="47"><text y="1.67" class="h">&quot;victoriametrics-operator&quot;</text></symbol><symbol id="48"><text y="1.67" class="h">&quot;virt-gateway-operator&quot;</text></symbol><symbol id="49"><text y="1.67" class="h">&quot;virt-git-sync&quot;</text></symbol><symbol id="50"><text y="1.67" class="h">&quot;wandb-operator&quot;</text></symbol><symbol id="51"><text y="1.67" class="h">&quot;wavefront&quot;</text></symbol><symbol id="52"><text y="1.67" class="h">&quot;wildfly&quot;</text></symbol><symbol id="53"><text y="1.67" class="h">&quot;windup-operator&quot;</text></symbol><symbol id="54"><text y="1.67" class="h">&quot;wso2am-operator&quot;</text></symbol><symbol id="55"><text y="1.67" class="h">&quot;xrootd-operator&quot;</text></symbol><symbol id="56"><text y="1.67" class="h">&quot;yaks&quot;</text></symbol><symbol id="57"><text y="1.67" class="h">&quot;yugabyte-operator&quot;</text></symbol><symbol id="58"><text y="1.67" class="h">&quot;zookeeper-operator&quot;</text></symbol><symbol id="59"><text y="1.67" class="h">&quot;zoperator&quot;</text></symbol><symbol id="60"><text y="1.67" class="f">#</text><text x="2.004" y="1.67" class="f">package</text><text x="10.02" y="1.67" class="f">&quot;wavefront&quot;</text><text x="22.044" y="1.67" class="f">in</text><text x="25.05" y="1.67" class="f">catalog</text><text x="33.066" y="1.67" class="f">&quot;operatorhubio&quot;</text><text x="49.098" y="1.67" class="f">has</text><text x="53.106" y="1.67" class="f">some</text><text x="58.116" y="1.67" class="f">channels</text><text x="67.134" y="1.67" class="f">defined</text></symbol><symbol id="61"><text y="1.67" class="g">ts</text><text x="3.006" y="1.67" class="g">|</text><text x="5.01" y="1.67" class="g">select(.schema</text><text x="20.04" y="1.67" class="g">==</text><text x="23.046" y="1.67" class="g">&quot;olm.channel&quot;)</text><text x="38.076" y="1.67" class="g">|</text><text x="40.08" y="1.67" class="g">select(.package</text><text x="56.112" y="1.67" class="g">==</text><text x="59.118" y="1.67" class="g">&quot;wavefront&quot;)</text><text x="72.144" y="1.67" class="g">|</text><text x="74.148" y="1.67" class="g">.name&apos;</text></symbol><symbol id="62"><text y="1.67" class="h">&quot;alpha&quot;</text></symbol><symbol id="63"><text y="1.67" class="f">#</text><text x="2.004" y="1.67" class="f">package</text><text x="10.02" y="1.67" class="f">&quot;wavefront&quot;</text><text x="22.044" y="1.67" class="f">in</text><text x="25.05" y="1.67" class="f">catalog</text><text x="33.066" y="1.67" class="f">&quot;operatorhubio&quot;</text><text x="49.098" y="1.67" class="f">has</text><text x="53.106" y="1.67" class="f">some</text><text x="58.116" y="1.67" class="f">bundles</text><text x="66.132" y="1.67" class="f">published</text></symbol><symbol id="64"><text y="1.67" class="g">ts</text><text x="3.006" y="1.67" class="g">|</text><text x="5.01" y="1.67" class="g">select(.schema</text><text x="20.04" y="1.67" class="g">==</text><text x="23.046" y="1.67" class="g">&quot;olm.bundle&quot;)</text><text x="37.074" y="1.67" class="g">|</text><text x="39.078" y="1.67" class="g">select(.package</text><text x="55.11" y="1.67" class="g">==</text><text x="58.116" y="1.67" class="g">&quot;wavefront&quot;)</text><text x="71.142" y="1.67" class="g">|</text><text x="73.146" y="1.67" class="g">.name&apos;</text></symbol><symbol id="a"><path fill="transparent" d="M0 0h120v40H0z"/></symbol><symbol id="b"><path fill="#6f7683" d="M0 0h1.102v2.171H0z"/></symbol></defs><path class="a" d="M0 0h120v86.84H0z"/><g style="animation-duration:4.01787s;animation-iteration-count:infinite;animation-name:k;animation-timing-function:steps(1,end)"><svg width="2400"><svg><use xlink:href="#a"/><use xlink:href="#b" x="-.004"/></svg><svg x="120"><use xlink:href="#a"/><use xlink:href="#b" x="-.004" y="4.317"/><use xlink:href="#1" y="2.171"/></svg><svg x="240"><use xlink:href="#a"/><use xlink:href="#b" x="-.004" y="6.488"/><use xlink:href="#1" y="2.171"/><use xlink:href="#2" y="4.342"/></svg><svg x="360"><use xlink:href="#a"/><use xlink:href="#b" x="-.004" y="13.001"/><use xlink:href="#1" y="2.171"/><use xlink:href="#2" y="4.342"/><use xlink:href="#3" y="6.513"/><use xlink:href="#4" y="8.684"/><use xlink:href="#5" y="10.855"/></svg><svg x="480"><use xlink:href="#a"/><use xlink:href="#b" x="-.004" y="17.343"/><use xlink:href="#1" y="2.171"/><use xlink:href="#2" y="4.342"/><use xlink:href="#3" y="6.513"/><use xlink:href="#4" y="8.684"/><use xlink:href="#5" y="10.855"/><use xlink:href="#6" y="15.197"/></svg><svg x="600"><use xlink:href="#a"/><use xlink:href="#b" x="-.004" y="19.514"/><use xlink:href="#1" y="2.171"/><use xlink:href="#2" y="4.342"/><use xlink:href="#3" y="6.513"/><use xlink:href="#4" y="8.684"/><use xlink:href="#5" y="10.855"/><use xlink:href="#6" y="15.197"/><use xlink:href="#7" y="17.368"/></svg><svg x="720"><use xlink:href="#a"/><use xlink:href="#b" x="-.004" y="23.856"/><use xlink:href="#1" y="2.171"/><use xlink:href="#2" y="4.342"/><use xlink:href="#3" y="6.513"/><use xlink:href="#4" y="8.684"/><use xlink:href="#5" y="10.855"/><use xlink:href="#6" y="15.197"/><use xlink:href="#7" y="17.368"/><use xlink:href="#8" y="19.539"/><use xlink:href="#9" y="21.71"/></svg><svg x="840"><use xlink:href="#a"/><use xlink:href="#b" x="-.004" y="28.198"/><use xlink:href="#1" y="2.171"/><use xlink:href="#2" y="4.342"/><use xlink:href="#3" y="6.513"/><use xlink:href="#4" y="8.684"/><use xlink:href="#5" y="10.855"/><use xlink:href="#6" y="15.197"/><use xlink:href="#7" y="17.368"/><use xlink:href="#8" y="19.539"/><use xlink:href="#9" y="21.71"/><use xlink:href="#10" y="26.052"/></svg><svg x="960"><use xlink:href="#a"/><use xlink:href="#b" x="-.004" y="30.369"/><use xlink:href="#1" y="2.171"/><use xlink:href="#2" y="4.342"/><use xlink:href="#3" y="6.513"/><use xlink:href="#4" y="8.684"/><use xlink:href="#5" y="10.855"/><use xlink:href="#6" y="15.197"/><use xlink:href="#7" y="17.368"/><use xlink:href="#8" y="19.539"/><use xlink:href="#9" y="21.71"/><use xlink:href="#10" y="26.052"/><use xlink:href="#11" y="28.223"/></svg><svg x="1080"><use xlink:href="#a"/><use xlink:href="#b" x="-.004" y="47.737"/><use xlink:href="#1" y="2.171"/><use xlink:href="#2" y="4.342"/><use xlink:href="#3" y="6.513"/><use xlink:href="#4" y="8.684"/><use xlink:href="#5" y="10.855"/><use xlink:href="#6" y="15.197"/><use xlink:href="#7" y="17.368"/><use xlink:href="#8" y="19.539"/><use xlink:href="#9" y="21.71"/><use xlink:href="#10" y="26.052"/><use xlink:href="#11" y="28.223"/><use xlink:href="#12" y="30.394"/><use xlink:href="#13" y="32.565"/><use xlink:href="#14" y="34.736"/><use xlink:href="#15" y="36.907"/><use xlink:href="#16" y="39.078"/><use xlink:href="#17" y="41.249"/><use xlink:href="#18" y="43.42"/><use xlink:href="#19" y="45.591"/></svg><svg x="1200"><use xlink:href="#a"/><use xlink:href="#b" x="-.004" y="52.079"/><use xlink:href="#1" y="2.171"/><use xlink:href="#2" y="4.342"/><use xlink:href="#3" y="6.513"/><use xlink:href="#4" y="8.684"/><use xlink:href="#5" y="10.855"/><use xlink:href="#6" y="15.197"/><use xlink:href="#7" y="17.368"/><use xlink:href="#8" y="19.539"/><use xlink:href="#9" y="21.71"/><use xlink:href="#10" y="26.052"/><use xlink:href="#11" y="28.223"/><use xlink:href="#12" y="30.394"/><use xlink:href="#13" y="32.565"/><use xlink:href="#14" y="34.736"/><use xlink:href="#15" y="36.907"/><use xlink:href="#16" y="39.078"/><use xlink:href="#17" y="41.249"/><use xlink:href="#18" y="43.42"/><use xlink:href="#19" y="45.591"/><use xlink:href="#20" y="49.933"/></svg><svg x="1320"><use xlink:href="#a"/><use xlink:href="#b" x="-.004" y="54.25"/><use xlink:href="#1" y="2.171"/><use xlink:href="#2" y="4.342"/><use xlink:href="#3" y="6.513"/><use xlink:href="#4" y="8.684"/><use xlink:href="#5" y="10.855"/><use xlink:href="#6" y="15.197"/><use xlink:href="#7" y="17.368"/><use xlink:href="#8" y="19.539"/><use xlink:href="#9" y="21.71"/><use xlink:href="#10" y="26.052"/><use xlink:href="#11" y="28.223"/><use xlink:href="#12" y="30.394"/><use xlink:href="#13" y="32.565"/><use xlink:href="#14" y="34.736"/><use xlink:href="#15" y="36.907"/><use xlink:href="#16" y="39.078"/><use xlink:href="#17" y="41.249"/><use xlink:href="#18" y="43.42"/><use xlink:href="#19" y="45.591"/><use xlink:href="#20" y="49.933"/><use xlink:href="#21" y="52.104"/></svg><svg x="1440"><use xlink:href="#a"/><use xlink:href="#b" x="-.004" y="58.592"/><use xlink:href="#1" y="2.171"/><use xlink:href="#2" y="4.342"/><use xlink:href="#3" y="6.513"/><use xlink:href="#4" y="8.684"/><use xlink:href="#5" y="10.855"/><use xlink:href="#6" y="15.197"/><use xlink:href="#7" y="17.368"/><use xlink:href="#8" y="19.539"/><use xlink:href="#9" y="21.71"/><use xlink:href="#10" y="26.052"/><use xlink:href="#11" y="28.223"/><use xlink:href="#12" y="30.394"/><use xlink:href="#13" y="32.565"/><use xlink:href="#14" y="34.736"/><use xlink:href="#15" y="36.907"/><use xlink:href="#16" y="39.078"/><use xlink:href="#17" y="41.249"/><use xlink:href="#18" y="43.42"/><use xlink:href="#19" y="45.591"/><use xlink:href="#20" y="49.933"/><use xlink:href="#21" y="52.104"/><use xlink:href="#22" y="54.275"/><text y="58.116" class="g">ts</text><text x="3.006" y="58.116" class="g">|</text><text x="5.01" y="58.116" class="g">select(.schema</text><text x="20.04" y="58.116" class="g">==</text><text x="23.046" y="58.116" class="g">&quot;olm.package&quot;)</text><text x="38.076" y="58.116" class="g">|</text><text x="40.08" y="58.116" class="g">.name&apos;</text></svg><svg x="1560"><use xlink:href="#a"/><use xlink:href="#b" x="-.004" y="84.644"/><text y="1.67" class="h">&quot;strimzi-kafka-operator&quot;</text><text y="3.841" class="h">&quot;submariner&quot;</text><use xlink:href="#23" y="4.342"/><use xlink:href="#24" y="6.513"/><use xlink:href="#25" y="8.684"/><use xlink:href="#26" y="10.855"/><use xlink:href="#27" y="13.026"/><use xlink:href="#28" y="15.197"/><use xlink:href="#29" y="17.368"/><use xlink:href="#30" y="19.539"/><use xlink:href="#31" y="21.71"/><use xlink:href="#32" y="23.881"/><use xlink:href="#33" y="26.052"/><use xlink:href="#34" y="28.223"/><use xlink:href="#35" y="30.394"/><use xlink:href="#36" y="32.565"/><use xlink:href="#37" y="34.736"/><use xlink:href="#38" y="36.907"/><use xlink:href="#39" y="39.078"/><use xlink:href="#40" y="41.249"/><use xlink:href="#41" y="43.42"/><use xlink:href="#42" y="45.591"/><use xlink:href="#43" y="47.762"/><use xlink:href="#44" y="49.933"/><use xlink:href="#45" y="52.104"/><use xlink:href="#46" y="54.275"/><use xlink:href="#47" y="56.446"/><use xlink:href="#48" y="58.617"/><use xlink:href="#49" y="60.788"/><use xlink:href="#50" y="62.959"/><use xlink:href="#51" y="65.13"/><use xlink:href="#52" y="67.301"/><use xlink:href="#53" y="69.472"/><use xlink:href="#54" y="71.643"/><use xlink:href="#55" y="73.814"/><use xlink:href="#56" y="75.985"/><use xlink:href="#57" y="78.156"/><use xlink:href="#58" y="80.327"/><use xlink:href="#59" y="82.498"/></svg><svg x="1680"><use xlink:href="#a"/><use xlink:href="#b" x="-.004" y="84.644"/><use xlink:href="#23"/><use xlink:href="#24" y="2.171"/><use xlink:href="#25" y="4.342"/><use xlink:href="#26" y="6.513"/><use xlink:href="#27" y="8.684"/><use xlink:href="#28" y="10.855"/><use xlink:href="#29" y="13.026"/><use xlink:href="#30" y="15.197"/><use xlink:href="#31" y="17.368"/><use xlink:href="#32" y="19.539"/><use xlink:href="#33" y="21.71"/><use xlink:href="#34" y="23.881"/><use xlink:href="#35" y="26.052"/><use xlink:href="#36" y="28.223"/><use xlink:href="#37" y="30.394"/><use xlink:href="#38" y="32.565"/><use xlink:href="#39" y="34.736"/><use xlink:href="#40" y="36.907"/><use xlink:href="#41" y="39.078"/><use xlink:href="#42" y="41.249"/><use xlink:href="#43" y="43.42"/><use xlink:href="#44" y="45.591"/><use xlink:href="#45" y="47.762"/><use xlink:href="#46" y="49.933"/><use xlink:href="#47" y="52.104"/><use xlink:href="#48" y="54.275"/><use xlink:href="#49" y="56.446"/><use xlink:href="#50" y="58.617"/><use xlink:href="#51" y="60.788"/><use xlink:href="#52" y="62.959"/><use xlink:href="#53" y="65.13"/><use xlink:href="#54" y="67.301"/><use xlink:href="#55" y="69.472"/><use xlink:href="#56" y="71.643"/><use xlink:href="#57" y="73.814"/><use xlink:href="#58" y="75.985"/><use xlink:href="#59" y="78.156"/><use xlink:href="#60" y="82.498"/></svg><svg x="1800"><use xlink:href="#a"/><use xlink:href="#b" x="-.004" y="84.644"/><use xlink:href="#25"/><use xlink:href="#26" y="2.171"/><use xlink:href="#27" y="4.342"/><use xlink:href="#28" y="6.513"/><use xlink:href="#29" y="8.684"/><use xlink:href="#30" y="10.855"/><use xlink:href="#31" y="13.026"/><use xlink:href="#32" y="15.197"/><use xlink:href="#33" y="17.368"/><use xlink:href="#34" y="19.539"/><use xlink:href="#35" y="21.71"/><use xlink:href="#36" y="23.881"/><use xlink:href="#37" y="26.052"/><use xlink:href="#38" y="28.223"/><use xlink:href="#39" y="30.394"/><use xlink:href="#40" y="32.565"/><use xlink:href="#41" y="34.736"/><use xlink:href="#42" y="36.907"/><use xlink:href="#43" y="39.078"/><use xlink:href="#44" y="41.249"/><use xlink:href="#45" y="43.42"/><use xlink:href="#46" y="45.591"/><use xlink:href="#47" y="47.762"/><use xlink:href="#48" y="49.933"/><use xlink:href="#49" y="52.104"/><use xlink:href="#50" y="54.275"/><use xlink:href="#51" y="56.446"/><use xlink:href="#52" y="58.617"/><use xlink:href="#53" y="60.788"/><use xlink:href="#54" y="62.959"/><use xlink:href="#55" y="65.13"/><use xlink:href="#56" y="67.301"/><use xlink:href="#57" y="69.472"/><use xlink:href="#58" y="71.643"/><use xlink:href="#59" y="73.814"/><use xlink:href="#60" y="78.156"/><use xlink:href="#22" y="80.327"/><use xlink:href="#61" y="82.498"/></svg><svg x="1920"><use xlink:href="#a"/><use xlink:href="#b" x="-.004" y="84.644"/><use xlink:href="#26"/><use xlink:href="#27" y="2.171"/><use xlink:href="#28" y="4.342"/><use xlink:href="#29" y="6.513"/><use xlink:href="#30" y="8.684"/><use xlink:href="#31" y="10.855"/><use xlink:href="#32" y="13.026"/><use xlink:href="#33" y="15.197"/><use xlink:href="#34" y="17.368"/><use xlink:href="#35" y="19.539"/><use xlink:href="#36" y="21.71"/><use xlink:href="#37" y="23.881"/><use xlink:href="#38" y="26.052"/><use xlink:href="#39" y="28.223"/><use xlink:href="#40" y="30.394"/><use xlink:href="#41" y="32.565"/><use xlink:href="#42" y="34.736"/><use xlink:href="#43" y="36.907"/><use xlink:href="#44" y="39.078"/><use xlink:href="#45" y="41.249"/><use xlink:href="#46" y="43.42"/><use xlink:href="#47" y="45.591"/><use xlink:href="#48" y="47.762"/><use xlink:href="#49" y="49.933"/><use xlink:href="#50" y="52.104"/><use xlink:href="#51" y="54.275"/><use xlink:href="#52" y="56.446"/><use xlink:href="#53" y="58.617"/><use xlink:href="#54" y="60.788"/><use xlink:href="#55" y="62.959"/><use xlink:href="#56" y="65.13"/><use xlink:href="#57" y="67.301"/><use xlink:href="#58" y="69.472"/><use xlink:href="#59" y="71.643"/><use xlink:href="#60" y="75.985"/><use xlink:href="#22" y="78.156"/><use xlink:href="#61" y="80.327"/><use xlink:href="#62" y="82.498"/></svg><svg x="2040"><use xlink:href="#a"/><use xlink:href="#b" x="-.004" y="84.644"/><use xlink:href="#28"/><use xlink:href="#29" y="2.171"/><use xlink:href="#30" y="4.342"/><use xlink:href="#31" y="6.513"/><use xlink:href="#32" y="8.684"/><use xlink:href="#33" y="10.855"/><use xlink:href="#34" y="13.026"/><use xlink:href="#35" y="15.197"/><use xlink:href="#36" y="17.368"/><use xlink:href="#37" y="19.539"/><use xlink:href="#38" y="21.71"/><use xlink:href="#39" y="23.881"/><use xlink:href="#40" y="26.052"/><use xlink:href="#41" y="28.223"/><use xlink:href="#42" y="30.394"/><use xlink:href="#43" y="32.565"/><use xlink:href="#44" y="34.736"/><use xlink:href="#45" y="36.907"/><use xlink:href="#46" y="39.078"/><use xlink:href="#47" y="41.249"/><use xlink:href="#48" y="43.42"/><use xlink:href="#49" y="45.591"/><use xlink:href="#50" y="47.762"/><use xlink:href="#51" y="49.933"/><use xlink:href="#52" y="52.104"/><use xlink:href="#53" y="54.275"/><use xlink:href="#54" y="56.446"/><use xlink:href="#55" y="58.617"/><use xlink:href="#56" y="60.788"/><use xlink:href="#57" y="62.959"/><use xlink:href="#58" y="65.13"/><use xlink:href="#59" y="67.301"/><use xlink:href="#60" y="71.643"/><use xlink:href="#22" y="73.814"/><use xlink:href="#61" y="75.985"/><use xlink:href="#62" y="78.156"/><use xlink:href="#63" y="82.498"/></svg><svg x="2160"><use xlink:href="#a"/><use xlink:href="#b" x="-.004" y="84.644"/><use xlink:href="#30"/><use xlink:href="#31" y="2.171"/><use xlink:href="#32" y="4.342"/><use xlink:href="#33" y="6.513"/><use xlink:href="#34" y="8.684"/><use xlink:href="#35" y="10.855"/><use xlink:href="#36" y="13.026"/><use xlink:href="#37" y="15.197"/><use xlink:href="#38" y="17.368"/><use xlink:href="#39" y="19.539"/><use xlink:href="#40" y="21.71"/><use xlink:href="#41" y="23.881"/><use xlink:href="#42" y="26.052"/><use xlink:href="#43" y="28.223"/><use xlink:href="#44" y="30.394"/><use xlink:href="#45" y="32.565"/><use xlink:href="#46" y="34.736"/><use xlink:href="#47" y="36.907"/><use xlink:href="#48" y="39.078"/><use xlink:href="#49" y="41.249"/><use xlink:href="#50" y="43.42"/><use xlink:href="#51" y="45.591"/><use xlink:href="#52" y="47.762"/><use xlink:href="#53" y="49.933"/><use xlink:href="#54" y="52.104"/><use xlink:href="#55" y="54.275"/><use xlink:href="#56" y="56.446"/><use xlink:href="#57" y="58.617"/><use xlink:href="#58" y="60.788"/><use xlink:href="#59" y="62.959"/><use xlink:href="#60" y="67.301"/><use xlink:href="#22" y="69.472"/><use xlink:href="#61" y="71.643"/><use xlink:href="#62" y="73.814"/><use xlink:href="#63" y="78.156"/><use xlink:href="#22" y="80.327"/><use xlink:href="#64" y="82.498"/></svg><svg x="2280"><use xlink:href="#a"/><use xlink:href="#b" x="-.004" y="84.644"/><use xlink:href="#31"/><use xlink:href="#32" y="2.171"/><use xlink:href="#33" y="4.342"/><use xlink:href="#34" y="6.513"/><use xlink:href="#35" y="8.684"/><use xlink:href="#36" y="10.855"/><use xlink:href="#37" y="13.026"/><use xlink:href="#38" y="15.197"/><use xlink:href="#39" y="17.368"/><use xlink:href="#40" y="19.539"/><use xlink:href="#41" y="21.71"/><use xlink:href="#42" y="23.881"/><use xlink:href="#43" y="26.052"/><use xlink:href="#44" y="28.223"/><use xlink:href="#45" y="30.394"/><use xlink:href="#46" y="32.565"/><use xlink:href="#47" y="34.736"/><use xlink:href="#48" y="36.907"/><use xlink:href="#49" y="39.078"/><use xlink:href="#50" y="41.249"/><use xlink:href="#51" y="43.42"/><use xlink:href="#52" y="45.591"/><use xlink:href="#53" y="47.762"/><use xlink:href="#54" y="49.933"/><use xlink:href="#55" y="52.104"/><use xlink:href="#56" y="54.275"/><use xlink:href="#57" y="56.446"/><use xlink:href="#58" y="58.617"/><use xlink:href="#59" y="60.788"/><use xlink:href="#60" y="65.13"/><use xlink:href="#22" y="67.301"/><use xlink:href="#61" y="69.472"/><use xlink:href="#62" y="71.643"/><use xlink:href="#63" y="75.985"/><use xlink:href="#22" y="78.156"/><use xlink:href="#64" y="80.327"/><text y="84.168" class="h">&quot;wavefront-operator.v0.1.0&quot;</text></svg></svg></g></g></svg></svg>