<svg xmlns="http://www.w3.org/2000/svg" xmlns:xlink="http://www.w3.org/1999/xlink" width="1240" height="928.4"><rect width="1240" height="928.4" rx="5" ry="5" class="a"/><svg y="0%" x="0%"><circle cx="20" cy="20" r="6" fill="#ff5f58"/><circle cx="40" cy="20" r="6" fill="#ffbd2e"/><circle cx="60" cy="20" r="6" fill="#18c132"/></svg><svg height="868.4" viewBox="0 0 120 86.84" width="1200" x="15" xmlns="http://www.w3.org/2000/svg" xmlns:xlink="http://www.w3.org/1999/xlink" y="50"><style>@keyframes k{0%{transform:translateX(0)}2%{transform:translateX(-360px)}4.9%{transform:translateX(-720px)}6.8%{transform:translateX(-960px)}8.2%{transform:translateX(-1080px)}8.6%{transform:translateX(-1200px)}7.9%{transform:translateX(-1440px)}9.4%{transform:translateX(-1560px)}9.1%{transform:translateX(-1680px)}83.7%{transform:translateX(-2040px)}95.6%{transform:translateX(-2400px)}98%{transform:translateX(-2640px)}99.5%{transform:translateX(-2760px)}to{transform:translateX(-3120px)}}.a{fill:#282d35}.f{fill:#71bef2}.f,.g,.h{white-space:pre}.g{fill:#a8cc8c;font-weight:700}.h{fill:#b9c0cb}</style><g font-family="Monaco,Consolas,Menlo,'Bitstream Vera Sans Mono','Powerline Symbols',monospace" font-size="1.67"><defs><symbol id="1"><text y="1.67" class="f">#</text><text x="2.004" y="1.67" class="f">OLM</text><text x="6.012" y="1.67" class="f">is</text><text x="9.018" y="1.67" class="f">available</text></symbol><symbol id="2"><text y="1.67" class="g">$</text><text x="2.004" y="1.67" class="g">kubectl</text><text x="10.02" y="1.67" class="g">get</text><text x="14.028" y="1.67" class="g">deployments</text><text x="26.052" y="1.67" class="g">-n</text><text x="29.058" y="1.67" class="g">olmv1-system</text></symbol><symbol id="3"><text y="1.67" class="h">NAME</text><text x="41.082" y="1.67" class="h">READY</text><text x="49.098" y="1.67" class="h">UP-TO-DATE</text><text x="62.124" y="1.67" class="h">AVAILABLE</text><text x="74.148" y="1.67" class="h">AGE</text></symbol><symbol id="4"><text y="1.67" class="h">catalogd-controller-manager</text><text x="41.082" y="1.67" class="h">2/2</text><text x="49.098" y="1.67" class="h">2</text><text x="62.124" y="1.67" class="h">2</text><text x="74.148" y="1.67" class="h">2m22s</text></symbol><symbol id="5"><text y="1.67" class="h">operator-controller-controller-manager</text><text x="41.082" y="1.67" class="h">2/2</text><text x="49.098" y="1.67" class="h">2</text><text x="62.124" y="1.67" class="h">2</text><text x="74.148" y="1.67" class="h">2m22s</text></symbol><symbol id="6"><text y="1.67" class="f">#</text><text x="2.004" y="1.67" class="f">catalog</text><text x="10.02" y="1.67" class="f">&quot;operatorhubio&quot;</text><text x="26.052" y="1.67" class="f">reports</text><text x="34.068" y="1.67" class="f">Serving</text><text x="42.084" y="1.67" class="f">as</text><text x="45.09" y="1.67" class="f">True</text><text x="50.1" y="1.67" class="f">with</text><text x="55.11" y="1.67" class="f">Reason</text><text x="62.124" y="1.67" class="f">Available</text></symbol><symbol id="7"><text y="1.67" class="g">$</text><text x="2.004" y="1.67" class="g">kubectl</text><text x="10.02" y="1.67" class="g">get</text><text x="14.028" y="1.67" class="g">clustercatalog</text><text x="29.058" y="1.67" class="g">operatorhubio</text><text x="43.086" y="1.67" class="g">-o</text><text x="46.092" y="1.67" class="g">jsonpath=&apos;{.status.conditions[?(@.type==&quot;Serving&quot;)]}&apos;</text><text x="100.2" y="1.67" class="g">|</text><text x="102.204" y="1.67" class="g">jq</text><text x="105.21" y="1.67" class="g">.</text></symbol><symbol id="8"><text y="1.67" class="h">{&quot;lastTransitionTime&quot;:&quot;2026-07-20T18:46:41Z&quot;,&quot;message&quot;:&quot;Serving</text><text x="64.128" y="1.67" class="h">desired</text><text x="72.144" y="1.67" class="h">content</text><text x="80.16" y="1.67" class="h">from</text><text x="85.17" y="1.67" class="h">resolved</text><text x="94.188" y="1.67" class="h">source&quot;,&quot;observedGeneratio</text></symbol><symbol id="9"><text y="1.67" class="h">n&quot;:1,&quot;reason&quot;:&quot;Available&quot;,&quot;status&quot;:&quot;True&quot;,&quot;type&quot;:&quot;Serving&quot;}</text></symbol><symbol id="10"><text y="1.67" class="f">#</text><text x="2.004" y="1.67" class="f">namespace</text><text x="12.024" y="1.67" class="f">&quot;${TEST_NAMESPACE}&quot;</text><text x="32.064" y="1.67" class="f">is</text><text x="35.07" y="1.67" class="f">available</text></symbol><symbol id="11"><text y="1.67" class="g">$</text><text x="2.004" y="1.67" class="g">kubectl</text><text x="10.02" y="1.67" class="g">apply</text><text x="16.032" y="1.67" class="g">-f</text><text x="19.038" y="1.67" class="g">-</text></symbol><symbol id="12"><text y="1.67" class="h">&lt;&lt;EOF</text></symbol><symbol id="13"><text y="1.67" class="h">---</text></symbol><symbol id="14"><text y="1.67" class="h">apiVersion:</text><text x="12.024" y="1.67" class="h">v1</text></symbol><symbol id="15"><text y="1.67" class="h">kind:</text><text x="6.012" y="1.67" class="h">Namespace</text></symbol><symbol id="16"><text y="1.67" class="h">metadata:</text></symbol><symbol id="17"><text x="2.004" y="1.67" class="h">name:</text><text x="8.016" y="1.67" class="h">ns-66</text></symbol><symbol id="18"><text y="1.67" class="h">EOF</text></symbol><symbol id="19"><text y="1.67" class="h">namespace/ns-66</text><text x="16.032" y="1.67" class="h">created</text></symbol><symbol id="20"><text y="1.67" class="f">#</text><text x="2.004" y="1.67" class="f">ClusterExtension</text><text x="19.038" y="1.67" class="f">is</text><text x="22.044" y="1.67" class="f">applied</text></symbol><symbol id="21"><text y="1.67" class="h">apiVersion:</text><text x="12.024" y="1.67" class="h">olm.operatorframework.io/v1</text></symbol><symbol id="22"><text y="1.67" class="h">kind:</text><text x="6.012" y="1.67" class="h">ClusterExtension</text></symbol><symbol id="23"><text x="2.004" y="1.67" class="h">annotations:</text></symbol><symbol id="24"><text x="4.008" y="1.67" class="h">e2e.olm.operatorframework.io/feature:</text><text x="42.084" y="1.67" class="h">demos</text></symbol><symbol id="25"><text x="4.008" y="1.67" class="h">e2e.olm.operatorframework.io/scenario:</text><text x="43.086" y="1.67" class="h">Webhook</text><text x="51.102" y="1.67" class="h">Support</text></symbol><symbol id="26"><text x="2.004" y="1.67" class="h">name:</text><text x="8.016" y="1.67" class="h">ce-66</text></symbol><symbol id="27"><text y="1.67" class="h">spec:</text></symbol><symbol id="28"><text x="2.004" y="1.67" class="h">namespace:</text><text x="13.026" y="1.67" class="h">ns-66</text></symbol><symbol id="29"><text x="2.004" y="1.67" class="h">source:</text></symbol><symbol id="30"><text x="4.008" y="1.67" class="h">catalog:</text></symbol><symbol id="31"><text x="6.012" y="1.67" class="h">packageName:</text><text x="19.038" y="1.67" class="h">telegraf-operator</text></symbol><symbol id="32"><text x="4.008" y="1.67" class="h">sourceType:</text><text x="16.032" y="1.67" class="h">Catalog</text></symbol><symbol id="33"><text y="1.67" class="h">clusterextension.olm.operatorframework.io/ce-66</text><text x="48.096" y="1.67" class="h">created</text></symbol><symbol id="34"><text y="1.67" class="f">#</text><text x="2.004" y="1.67" class="f">ClusterExtension</text><text x="19.038" y="1.67" class="f">is</text><text x="22.044" y="1.67" class="f">rolled</text><text x="29.058" y="1.67" class="f">out</text></symbol><symbol id="35"><text y="1.67" class="g">$</text><text x="2.004" y="1.67" class="g">kubectl</text><text x="10.02" y="1.67" class="g">get</text><text x="14.028" y="1.67" class="g">clusterextension</text><text x="31.062" y="1.67" class="g">ce-66</text></symbol><symbol id="36"><text y="1.67" class="h">NAME</text><text x="8.016" y="1.67" class="h">INSTALLED</text><text x="18.036" y="1.67" class="h">BUNDLE</text><text x="36.072" y="1.67" class="h">VERSION</text><text x="46.092" y="1.67" class="h">INSTALLED</text><text x="58.116" y="1.67" class="h">PROGRESSING</text><text x="72.144" y="1.67" class="h">AGE</text></symbol><symbol id="37"><text y="1.67" class="h">ce-66</text><text x="8.016" y="1.67" class="h">telegraf-operator.v1.3.10</text><text x="36.072" y="1.67" class="h">1.3.10</text><text x="46.092" y="1.67" class="h">True</text><text x="58.116" y="1.67" class="h">True</text><text x="72.144" y="1.67" class="h">5s</text></symbol><symbol id="38"><text y="1.67" class="f">#</text><text x="2.004" y="1.67" class="f">ClusterExtension</text><text x="19.038" y="1.67" class="f">is</text><text x="22.044" y="1.67" class="f">available</text></symbol><symbol id="39"><text x="6.012" y="1.67" class="h">&quot;observedGeneration&quot;:</text><text x="28.056" y="1.67" class="h">1,</text></symbol><symbol id="40"><text x="6.012" y="1.67" class="h">&quot;reason&quot;:</text><text x="16.032" y="1.67" class="h">&quot;NotDeprecated&quot;,</text></symbol><symbol id="41"><text x="6.012" y="1.67" class="h">&quot;status&quot;:</text><text x="16.032" y="1.67" class="h">&quot;False&quot;,</text></symbol><symbol id="42"><text x="6.012" y="1.67" class="h">&quot;type&quot;:</text><text x="14.028" y="1.67" class="h">&quot;BundleDeprecated&quot;</text></symbol><symbol id="43"><text x="4.008" y="1.67" class="h">},</text></symbol><symbol id="44"><text x="4.008" y="1.67" class="h">{</text></symbol><symbol id="45"><text x="6.012" y="1.67" class="h">&quot;lastTransitionTime&quot;:</text><text x="28.056" y="1.67" class="h">&quot;2026-07-20T18:48:36Z&quot;,</text></symbol><symbol id="46"><text x="6.012" y="1.67" class="h">&quot;message&quot;:</text><text x="17.034" y="1.67" class="h">&quot;Revision</text><text x="27.054" y="1.67" class="h">1.3.10</text><text x="34.068" y="1.67" class="h">has</text><text x="38.076" y="1.67" class="h">rolled</text><text x="45.09" y="1.67" class="h">out.&quot;,</text></symbol><symbol id="47"><text x="6.012" y="1.67" class="h">&quot;reason&quot;:</text><text x="16.032" y="1.67" class="h">&quot;Succeeded&quot;,</text></symbol><symbol id="48"><text x="6.012" y="1.67" class="h">&quot;status&quot;:</text><text x="16.032" y="1.67" class="h">&quot;True&quot;,</text></symbol><symbol id="49"><text x="6.012" y="1.67" class="h">&quot;type&quot;:</text><text x="14.028" y="1.67" class="h">&quot;Progressing&quot;</text></symbol><symbol id="50"><text x="6.012" y="1.67" class="h">&quot;lastTransitionTime&quot;:</text><text x="28.056" y="1.67" class="h">&quot;2026-07-20T18:48:39Z&quot;,</text></symbol><symbol id="51"><text x="6.012" y="1.67" class="h">&quot;message&quot;:</text><text x="17.034" y="1.67" class="h">&quot;Installed</text><text x="28.056" y="1.67" class="h">bundle</text><text x="35.07" y="1.67" class="h">quay.io/operatorhubio/telegraf-operator@sha256:389da366547038c5c22a9597d59c49a66359dc</text></symbol><symbol id="52"><text y="1.67" class="h">008eaf7d0db57c196556f1688f</text><text x="27.054" y="1.67" class="h">successfully&quot;,</text></symbol><symbol id="53"><text x="6.012" y="1.67" class="h">&quot;type&quot;:</text><text x="14.028" y="1.67" class="h">&quot;Installed&quot;</text></symbol><symbol id="54"><text x="6.012" y="1.67" class="h">&quot;message&quot;:</text><text x="17.034" y="1.67" class="h">&quot;Objects</text><text x="26.052" y="1.67" class="h">are</text><text x="30.06" y="1.67" class="h">available</text><text x="40.08" y="1.67" class="h">and</text><text x="44.088" y="1.67" class="h">pass</text><text x="49.098" y="1.67" class="h">all</text><text x="53.106" y="1.67" class="h">probes.&quot;,</text></symbol><symbol id="55"><text x="6.012" y="1.67" class="h">&quot;reason&quot;:</text><text x="16.032" y="1.67" class="h">&quot;ProbesSucceeded&quot;,</text></symbol><symbol id="56"><text x="6.012" y="1.67" class="h">&quot;type&quot;:</text><text x="14.028" y="1.67" class="h">&quot;Available&quot;</text></symbol><symbol id="57"><text x="4.008" y="1.67" class="h">}</text></symbol><symbol id="58"><text x="2.004" y="1.67" class="h">],</text></symbol><symbol id="59"><text x="2.004" y="1.67" class="h">&quot;install&quot;:</text><text x="13.026" y="1.67" class="h">{</text></symbol><symbol id="60"><text x="4.008" y="1.67" class="h">&quot;bundle&quot;:</text><text x="14.028" y="1.67" class="h">{</text></symbol><symbol id="61"><text x="6.012" y="1.67" class="h">&quot;name&quot;:</text><text x="14.028" y="1.67" class="h">&quot;telegraf-operator.v1.3.10&quot;,</text></symbol><symbol id="62"><text x="6.012" y="1.67" class="h">&quot;version&quot;:</text><text x="17.034" y="1.67" class="h">&quot;1.3.10&quot;</text></symbol><symbol id="63"><text x="2.004" y="1.67" class="h">}</text></symbol><symbol id="64"><text y="1.67" class="h">}</text></symbol><symbol id="65"><text y="1.67" class="f">#</text><text x="2.004" y="1.67" class="f">resource</text><text x="11.022" y="1.67" class="f">is</text><text x="14.028" y="1.67" class="f">applied</text></symbol><symbol id="66"><text y="1.67" class="h">kind:</text><text x="6.012" y="1.67" class="h">Pod</text></symbol><symbol id="67"><text x="4.008" y="1.67" class="h">telegraf.influxdata.com/class:</text><text x="35.07" y="1.67" class="h">default</text></symbol><symbol id="68"><text x="4.008" y="1.67" class="h">telegraf.influxdata.com/inputs:</text><text x="36.072" y="1.67" class="h">|</text></symbol><symbol id="69"><text x="6.012" y="1.67" class="h">[[inputs.cpu]]</text></symbol><symbol id="70"><text x="8.016" y="1.67" class="h">percpu</text><text x="15.03" y="1.67" class="h">=</text><text x="17.034" y="1.67" class="h">false</text></symbol><symbol id="71"><text x="8.016" y="1.67" class="h">totalcpu</text><text x="17.034" y="1.67" class="h">=</text><text x="19.038" y="1.67" class="h">true</text></symbol><symbol id="72"><text x="2.004" y="1.67" class="h">name:</text><text x="8.016" y="1.67" class="h">test-pod</text></symbol><symbol id="73"><text x="2.004" y="1.67" class="h">containers:</text></symbol><symbol id="74"><text x="2.004" y="1.67" class="h">-</text><text x="4.008" y="1.67" class="h">command:</text></symbol><symbol id="75"><text x="4.008" y="1.67" class="h">-</text><text x="6.012" y="1.67" class="h">sleep</text></symbol><symbol id="76"><text x="4.008" y="1.67" class="h">-</text><text x="6.012" y="1.67" class="h">&quot;3600&quot;</text></symbol><symbol id="77"><text x="4.008" y="1.67" class="h">image:</text><text x="11.022" y="1.67" class="h">busybox</text></symbol><symbol id="78"><text x="4.008" y="1.67" class="h">name:</text><text x="10.02" y="1.67" class="h">app</text></symbol><symbol id="79"><text y="1.67" class="h">pod/test-pod</text><text x="13.026" y="1.67" class="h">created</text></symbol><symbol id="80"><text y="1.67" class="f">#</text><text x="2.004" y="1.67" class="f">pod</text><text x="6.012" y="1.67" class="f">&quot;test-pod&quot;</text><text x="17.034" y="1.67" class="f">in</text><text x="20.04" y="1.67" class="f">test</text><text x="25.05" y="1.67" class="f">namespace</text><text x="35.07" y="1.67" class="f">has</text><text x="39.078" y="1.67" class="f">2</text><text x="41.082" y="1.67" class="f">containers</text></symbol><symbol id="81"><text y="1.67" class="g">$</text><text x="2.004" y="1.67" class="g">kubectl</text><text x="10.02" y="1.67" class="g">get</text><text x="14.028" y="1.67" class="g">pod</text><text x="18.036" y="1.67" class="g">test-pod</text><text x="27.054" y="1.67" class="g">-n</text><text x="30.06" y="1.67" class="g">ns-66</text><text x="36.072" y="1.67" class="g">-o</text><text x="39.078" y="1.67" class="g">jsonpath=&apos;{.spec.containers[*].name}&apos;</text></symbol><symbol id="a"><path fill="transparent" d="M0 0h120v40H0z"/></symbol><symbol id="b"><path fill="#6f7683" d="M0 0h1.102v2.171H0z"/></symbol></defs><path class="a" d="M0 0h120v86.84H0z"/><g style="animation-duration:6.782921s;animation-iteration-count:infinite;animation-name:k;animation-timing-function:steps(1,end)"><svg width="3240"><svg><use xlink:href="#a"/><use xlink:href="#b" x="-.004"/></svg><svg x="120"><use xlink:href="#a"/><use xlink:href="#b" x="-.004" y="4.317"/><use xlink:href="#1" y="2.171"/></svg><svg x="240"><use xlink:href="#a"/><use xlink:href="#b" x="-.004" y="6.488"/><use xlink:href="#1" y="2.171"/><use xlink:href="#2" y="4.342"/></svg><svg x="360"><use xlink:href="#a"/><use xlink:href="#b" x="-.004" y="13.001"/><use xlink:href="#1" y="2.171"/><use xlink:href="#2" y="4.342"/><use xlink:href="#3" y="6.513"/><use xlink:href="#4" y="8.684"/><use xlink:href="#5" y="10.855"/></svg><svg x="480"><use xlink:href="#a"/><use xlink:href="#b" x="-.004" y="17.343"/><use xlink:href="#1" y="2.171"/><use xlink:href="#2" y="4.342"/><use xlink:href="#3" y="6.513"/><use xlink:href="#4" y="8.684"/><use xlink:href="#5" y="10.855"/><use xlink:href="#6" y="15.197"/></svg><svg x="600"><use xlink:href="#a"/><use xlink:href="#b" x="-.004" y="19.514"/><use xlink:href="#1" y="2.171"/><use xlink:href="#2" y="4.342"/><use xlink:href="#3" y="6.513"/><use xlink:href="#4" y="8.684"/><use xlink:href="#5" y="10.855"/><use xlink:href="#6" y="15.197"/><use xlink:href="#7" y="17.368"/></svg><svg x="720"><use xlink:href="#a"/><use xlink:href="#b" x="-.004" y="23.856"/><use xlink:href="#1" y="2.171"/><use xlink:href="#2" y="4.342"/><use xlink:href="#3" y="6.513"/><use xlink:href="#4" y="8.684"/><use xlink:href="#5" y="10.855"/><use xlink:href="#6" y="15.197"/><use xlink:href="#7" y="17.368"/><use xlink:href="#8" y="19.539"/><use xlink:href="#9" y="21.71"/></svg><svg x="840"><use xlink:href="#a"/><use xlink:href="#b" x="-.004" y="28.198"/><use xlink:href="#1" y="2.171"/><use xlink:href="#2" y="4.342"/><use xlink:href="#3" y="6.513"/><use xlink:href="#4" y="8.684"/><use xlink:href="#5" y="10.855"/><use xlink:href="#6" y="15.197"/><use xlink:href="#7" y="17.368"/><use xlink:href="#8" y="19.539"/><use xlink:href="#9" y="21.71"/><use xlink:href="#10" y="26.052"/></svg><svg x="960"><use xlink:href="#a"/><use xlink:href="#b" x="-.004" y="30.369"/><use xlink:href="#1" y="2.171"/><use xlink:href="#2" y="4.342"/><use xlink:href="#3" y="6.513"/><use xlink:href="#4" y="8.684"/><use xlink:href="#5" y="10.855"/><use xlink:href="#6" y="15.197"/><use xlink:href="#7" y="17.368"/><use xlink:href="#8" y="19.539"/><use xlink:href="#9" y="21.71"/><use xlink:href="#10" y="26.052"/><use xlink:href="#11" y="28.223"/></svg><svg x="1080"><use xlink:href="#a"/><use xlink:href="#b" x="-.004" y="45.566"/><use xlink:href="#1" y="2.171"/><use xlink:href="#2" y="4.342"/><use xlink:href="#3" y="6.513"/><use xlink:href="#4" y="8.684"/><use xlink:href="#5" y="10.855"/><use xlink:href="#6" y="15.197"/><use xlink:href="#7" y="17.368"/><use xlink:href="#8" y="19.539"/><use xlink:href="#9" y="21.71"/><use xlink:href="#10" y="26.052"/><use xlink:href="#11" y="28.223"/><use xlink:href="#12" y="30.394"/><use xlink:href="#13" y="32.565"/><use xlink:href="#14" y="34.736"/><use xlink:href="#15" y="36.907"/><use xlink:href="#16" y="39.078"/><use xlink:href="#17" y="41.249"/><use xlink:href="#18" y="43.42"/></svg><svg x="1200"><use xlink:href="#a"/><use xlink:href="#b" x="-.004" y="47.737"/><use xlink:href="#1" y="2.171"/><use xlink:href="#2" y="4.342"/><use xlink:href="#3" y="6.513"/><use xlink:href="#4" y="8.684"/><use xlink:href="#5" y="10.855"/><use xlink:href="#6" y="15.197"/><use xlink:href="#7" y="17.368"/><use xlink:href="#8" y="19.539"/><use xlink:href="#9" y="21.71"/><use xlink:href="#10" y="26.052"/><use xlink:href="#11" y="28.223"/><use xlink:href="#12" y="30.394"/><use xlink:href="#13" y="32.565"/><use xlink:href="#14" y="34.736"/><use xlink:href="#15" y="36.907"/><use xlink:href="#16" y="39.078"/><use xlink:href="#17" y="41.249"/><use xlink:href="#18" y="43.42"/><use xlink:href="#19" y="45.591"/></svg><svg x="1320"><use xlink:href="#a"/><use xlink:href="#b" x="-.004" y="52.079"/><use xlink:href="#1" y="2.171"/><use xlink:href="#2" y="4.342"/><use xlink:href="#3" y="6.513"/><use xlink:href="#4" y="8.684"/><use xlink:href="#5" y="10.855"/><use xlink:href="#6" y="15.197"/><use xlink:href="#7" y="17.368"/><use xlink:href="#8" y="19.539"/><use xlink:href="#9" y="21.71"/><use xlink:href="#10" y="26.052"/><use xlink:href="#11" y="28.223"/><use xlink:href="#12" y="30.394"/><use xlink:href="#13" y="32.565"/><use xlink:href="#14" y="34.736"/><use xlink:href="#15" y="36.907"/><use xlink:href="#16" y="39.078"/><use xlink:href="#17" y="41.249"/><use xlink:href="#18" y="43.42"/><use xlink:href="#19" y="45.591"/><use xlink:href="#20" y="49.933"/></svg><svg x="1440"><use xlink:href="#a"/><use xlink:href="#b" x="-.004" y="54.25"/><use xlink:href="#1" y="2.171"/><use xlink:href="#2" y="4.342"/><use xlink:href="#3" y="6.513"/><use xlink:href="#4" y="8.684"/><use xlink:href="#5" y="10.855"/><use xlink:href="#6" y="15.197"/><use xlink:href="#7" y="17.368"/><use xlink:href="#8" y="19.539"/><use xlink:href="#9" y="21.71"/><use xlink:href="#10" y="26.052"/><use xlink:href="#11" y="28.223"/><use xlink:href="#12" y="30.394"/><use xlink:href="#13" y="32.565"/><use xlink:href="#14" y="34.736"/><use xlink:href="#15" y="36.907"/><use xlink:href="#16" y="39.078"/><use xlink:href="#17" y="41.249"/><use xlink:href="#18" y="43.42"/><use xlink:href="#19" y="45.591"/><use xlink:href="#20" y="49.933"/><use xlink:href="#11" y="52.104"/></svg><svg x="1560"><use xlink:href="#a"/><use xlink:href="#b" x="-.004" y="84.644"/><use xlink:href="#1"/><use xlink:href="#2" y="2.171"/><use xlink:href="#3" y="4.342"/><use xlink:href="#4" y="6.513"/><use xlink:href="#5" y="8.684"/><use xlink:href="#6" y="13.026"/><use xlink:href="#7" y="15.197"/><use xlink:href="#8" y="17.368"/><use xlink:href="#9" y="19.539"/><use xlink:href="#10" y="23.881"/><use xlink:href="#11" y="26.052"/><use xlink:href="#12" y="28.223"/><use xlink:href="#13" y="30.394"/><use xlink:href="#14" y="32.565"/><use xlink:href="#15" y="34.736"/><use xlink:href="#16" y="36.907"/><use xlink:href="#17" y="39.078"/><use xlink:href="#18" y="41.249"/><use xlink:href="#19" y="43.42"/><use xlink:href="#20" y="47.762"/><use xlink:href="#11" y="49.933"/><use xlink:href="#12" y="52.104"/><use xlink:href="#21" y="54.275"/><use xlink:href="#22" y="56.446"/><use xlink:href="#16" y="58.617"/><use xlink:href="#23" y="60.788"/><use xlink:href="#24" y="62.959"/><use xlink:href="#25" y="65.13"/><use xlink:href="#26" y="67.301"/><use xlink:href="#27" y="69.472"/><use xlink:href="#28" y="71.643"/><use xlink:href="#29" y="73.814"/><use xlink:href="#30" y="75.985"/><use xlink:href="#31" y="78.156"/><use xlink:href="#32" y="80.327"/><use xlink:href="#18" y="82.498"/></svg><svg x="1680"><use xlink:href="#a"/><use xlink:href="#b" x="-.004" y="84.644"/><use xlink:href="#2"/><use xlink:href="#3" y="2.171"/><use xlink:href="#4" y="4.342"/><use xlink:href="#5" y="6.513"/><use xlink:href="#6" y="10.855"/><use xlink:href="#7" y="13.026"/><use xlink:href="#8" y="15.197"/><use xlink:href="#9" y="17.368"/><use xlink:href="#10" y="21.71"/><use xlink:href="#11" y="23.881"/><use xlink:href="#12" y="26.052"/><use xlink:href="#13" y="28.223"/><use xlink:href="#14" y="30.394"/><use xlink:href="#15" y="32.565"/><use xlink:href="#16" y="34.736"/><use xlink:href="#17" y="36.907"/><use xlink:href="#18" y="39.078"/><use xlink:href="#19" y="41.249"/><use xlink:href="#20" y="45.591"/><use xlink:href="#11" y="47.762"/><use xlink:href="#12" y="49.933"/><use xlink:href="#21" y="52.104"/><use xlink:href="#22" y="54.275"/><use xlink:href="#16" y="56.446"/><use xlink:href="#23" y="58.617"/><use xlink:href="#24" y="60.788"/><use xlink:href="#25" y="62.959"/><use xlink:href="#26" y="65.13"/><use xlink:href="#27" y="67.301"/><use xlink:href="#28" y="69.472"/><use xlink:href="#29" y="71.643"/><use xlink:href="#30" y="73.814"/><use xlink:href="#31" y="75.985"/><use xlink:href="#32" y="78.156"/><use xlink:href="#18" y="80.327"/><use xlink:href="#33" y="82.498"/></svg><svg x="1800"><use xlink:href="#a"/><use xlink:href="#b" x="-.004" y="84.644"/><use xlink:href="#4"/><use xlink:href="#5" y="2.171"/><use xlink:href="#6" y="6.513"/><use xlink:href="#7" y="8.684"/><use xlink:href="#8" y="10.855"/><use xlink:href="#9" y="13.026"/><use xlink:href="#10" y="17.368"/><use xlink:href="#11" y="19.539"/><use xlink:href="#12" y="21.71"/><use xlink:href="#13" y="23.881"/><use xlink:href="#14" y="26.052"/><use xlink:href="#15" y="28.223"/><use xlink:href="#16" y="30.394"/><use xlink:href="#17" y="32.565"/><use xlink:href="#18" y="34.736"/><use xlink:href="#19" y="36.907"/><use xlink:href="#20" y="41.249"/><use xlink:href="#11" y="43.42"/><use xlink:href="#12" y="45.591"/><use xlink:href="#21" y="47.762"/><use xlink:href="#22" y="49.933"/><use xlink:href="#16" y="52.104"/><use xlink:href="#23" y="54.275"/><use xlink:href="#24" y="56.446"/><use xlink:href="#25" y="58.617"/><use xlink:href="#26" y="60.788"/><use xlink:href="#27" y="62.959"/><use xlink:href="#28" y="65.13"/><use xlink:href="#29" y="67.301"/><use xlink:href="#30" y="69.472"/><use xlink:href="#31" y="71.643"/><use xlink:href="#32" y="73.814"/><use xlink:href="#18" y="75.985"/><use xlink:href="#33" y="78.156"/><use xlink:href="#34" y="82.498"/></svg><svg x="1920"><use xlink:href="#a"/><use xlink:href="#b" x="-.004" y="84.644"/><use xlink:href="#5"/><use xlink:href="#6" y="4.342"/><use xlink:href="#7" y="6.513"/><use xlink:href="#8" y="8.684"/><use xlink:href="#9" y="10.855"/><use xlink:href="#10" y="15.197"/><use xlink:href="#11" y="17.368"/><use xlink:href="#12" y="19.539"/><use xlink:href="#13" y="21.71"/><use xlink:href="#14" y="23.881"/><use xlink:href="#15" y="26.052"/><use xlink:href="#16" y="28.223"/><use xlink:href="#17" y="30.394"/><use xlink:href="#18" y="32.565"/><use xlink:href="#19" y="34.736"/><use xlink:href="#20" y="39.078"/><use xlink:href="#11" y="41.249"/><use xlink:href="#12" y="43.42"/><use xlink:href="#21" y="45.591"/><use xlink:href="#22" y="47.762"/><use xlink:href="#16" y="49.933"/><use xlink:href="#23" y="52.104"/><use xlink:href="#24" y="54.275"/><use xlink:href="#25" y="56.446"/><use xlink:href="#26" y="58.617"/><use xlink:href="#27" y="60.788"/><use xlink:href="#28" y="62.959"/><use xlink:href="#29" y="65.13"/><use xlink:href="#30" y="67.301"/><use xlink:href="#31" y="69.472"/><use xlink:href="#32" y="71.643"/><use xlink:href="#18" y="73.814"/><use xlink:href="#33" y="75.985"/><use xlink:href="#34" y="80.327"/><use xlink:href="#35" y="82.498"/></svg><svg x="2040"><use xlink:href="#a"/><use xlink:href="#b" x="-.004" y="84.644"/><use xlink:href="#6"/><use xlink:href="#7" y="2.171"/><use xlink:href="#8" y="4.342"/><use xlink:href="#9" y="6.513"/><use xlink:href="#10" y="10.855"/><use xlink:href="#11" y="13.026"/><use xlink:href="#12" y="15.197"/><use xlink:href="#13" y="17.368"/><use xlink:href="#14" y="19.539"/><use xlink:href="#15" y="21.71"/><use xlink:href="#16" y="23.881"/><use xlink:href="#17" y="26.052"/><use xlink:href="#18" y="28.223"/><use xlink:href="#19" y="30.394"/><use xlink:href="#20" y="34.736"/><use xlink:href="#11" y="36.907"/><use xlink:href="#12" y="39.078"/><use xlink:href="#21" y="41.249"/><use xlink:href="#22" y="43.42"/><use xlink:href="#16" y="45.591"/><use xlink:href="#23" y="47.762"/><use xlink:href="#24" y="49.933"/><use xlink:href="#25" y="52.104"/><use xlink:href="#26" y="54.275"/><use xlink:href="#27" y="56.446"/><use xlink:href="#28" y="58.617"/><use xlink:href="#29" y="60.788"/><use xlink:href="#30" y="62.959"/><use xlink:href="#31" y="65.13"/><use xlink:href="#32" y="67.301"/><use xlink:href="#18" y="69.472"/><use xlink:href="#33" y="71.643"/><use xlink:href="#34" y="75.985"/><use xlink:href="#35" y="78.156"/><use xlink:href="#36" y="80.327"/><use xlink:href="#37" y="82.498"/></svg><svg x="2160"><use xlink:href="#a"/><use xlink:href="#b" x="-.004" y="84.644"/><use xlink:href="#8"/><use xlink:href="#9" y="2.171"/><use xlink:href="#10" y="6.513"/><use xlink:href="#11" y="8.684"/><use xlink:href="#12" y="10.855"/><use xlink:href="#13" y="13.026"/><use xlink:href="#14" y="15.197"/><use xlink:href="#15" y="17.368"/><use xlink:href="#16" y="19.539"/><use xlink:href="#17" y="21.71"/><use xlink:href="#18" y="23.881"/><use xlink:href="#19" y="26.052"/><use xlink:href="#20" y="30.394"/><use xlink:href="#11" y="32.565"/><use xlink:href="#12" y="34.736"/><use xlink:href="#21" y="36.907"/><use xlink:href="#22" y="39.078"/><use xlink:href="#16" y="41.249"/><use xlink:href="#23" y="43.42"/><use xlink:href="#24" y="45.591"/><use xlink:href="#25" y="47.762"/><use xlink:href="#26" y="49.933"/><use xlink:href="#27" y="52.104"/><use xlink:href="#28" y="54.275"/><use xlink:href="#29" y="56.446"/><use xlink:href="#30" y="58.617"/><use xlink:href="#31" y="60.788"/><use xlink:href="#32" y="62.959"/><use xlink:href="#18" y="65.13"/><use xlink:href="#33" y="67.301"/><use xlink:href="#34" y="71.643"/><use xlink:href="#35" y="73.814"/><use xlink:href="#36" y="75.985"/><use xlink:href="#37" y="78.156"/><use xlink:href="#38" y="82.498"/></svg><svg x="2280"><use xlink:href="#a"/><use xlink:href="#b" x="-.004" y="84.644"/><use xlink:href="#9"/><use xlink:href="#10" y="4.342"/><use xlink:href="#11" y="6.513"/><use xlink:href="#12" y="8.684"/><use xlink:href="#13" y="10.855"/><use xlink:href="#14" y="13.026"/><use xlink:href="#15" y="15.197"/><use xlink:href="#16" y="17.368"/><use xlink:href="#17" y="19.539"/><use xlink:href="#18" y="21.71"/><use xlink:href="#19" y="23.881"/><use xlink:href="#20" y="28.223"/><use xlink:href="#11" y="30.394"/><use xlink:href="#12" y="32.565"/><use xlink:href="#21" y="34.736"/><use xlink:href="#22" y="36.907"/><use xlink:href="#16" y="39.078"/><use xlink:href="#23" y="41.249"/><use xlink:href="#24" y="43.42"/><use xlink:href="#25" y="45.591"/><use xlink:href="#26" y="47.762"/><use xlink:href="#27" y="49.933"/><use xlink:href="#28" y="52.104"/><use xlink:href="#29" y="54.275"/><use xlink:href="#30" y="56.446"/><use xlink:href="#31" y="58.617"/><use xlink:href="#32" y="60.788"/><use xlink:href="#18" y="62.959"/><use xlink:href="#33" y="65.13"/><use xlink:href="#34" y="69.472"/><use xlink:href="#35" y="71.643"/><use xlink:href="#36" y="73.814"/><use xlink:href="#37" y="75.985"/><use xlink:href="#38" y="80.327"/><text y="84.168" class="g">$</text><text x="2.004" y="84.168" class="g">kubectl</text><text x="10.02" y="84.168" class="g">get</text><text x="14.028" y="84.168" class="g">clusterextension</text><text x="31.062" y="84.168" class="g">ce-66</text><text x="37.074" y="84.168" class="g">-o</text><text x="40.08" y="84.168" class="g">jsonpath=&apos;{.status}&apos;</text><text x="61.122" y="84.168" class="g">|</text><text x="63.126" y="84.168" class="g">jq</text><text x="66.132" y="84.168" class="g">.</text></svg><svg x="2400"><use xlink:href="#a"/><use xlink:href="#b" x="-.004" y="84.644"/><text x="6.012" y="1.67" class="h">&quot;message&quot;:</text><text x="17.034" y="1.67" class="h">&quot;bundle</text><text x="25.05" y="1.67" class="h">not</text><text x="29.058" y="1.67" class="h">deprecated&quot;,</text><use xlink:href="#39" y="2.171"/><use xlink:href="#40" y="4.342"/><use xlink:href="#41" y="6.513"/><use xlink:href="#42" y="8.684"/><use xlink:href="#43" y="10.855"/><use xlink:href="#44" y="13.026"/><use xlink:href="#45" y="15.197"/><use xlink:href="#46" y="17.368"/><use xlink:href="#39" y="19.539"/><use xlink:href="#47" y="21.71"/><use xlink:href="#48" y="23.881"/><use xlink:href="#49" y="26.052"/><use xlink:href="#43" y="28.223"/><use xlink:href="#44" y="30.394"/><use xlink:href="#50" y="32.565"/><use xlink:href="#51" y="34.736"/><use xlink:href="#52" y="36.907"/><use xlink:href="#39" y="39.078"/><use xlink:href="#47" y="41.249"/><use xlink:href="#48" y="43.42"/><use xlink:href="#53" y="45.591"/><use xlink:href="#43" y="47.762"/><use xlink:href="#44" y="49.933"/><use xlink:href="#50" y="52.104"/><use xlink:href="#54" y="54.275"/><use xlink:href="#39" y="56.446"/><use xlink:href="#55" y="58.617"/><use xlink:href="#48" y="60.788"/><use xlink:href="#56" y="62.959"/><use xlink:href="#57" y="65.13"/><use xlink:href="#58" y="67.301"/><use xlink:href="#59" y="69.472"/><use xlink:href="#60" y="71.643"/><use xlink:href="#61" y="73.814"/><use xlink:href="#62" y="75.985"/><use xlink:href="#57" y="78.156"/><use xlink:href="#63" y="80.327"/><use xlink:href="#64" y="82.498"/></svg><svg x="2520"><use xlink:href="#a"/><use xlink:href="#b" x="-.004" y="84.644"/><use xlink:href="#40"/><use xlink:href="#41" y="2.171"/><use xlink:href="#42" y="4.342"/><use xlink:href="#43" y="6.513"/><use xlink:href="#44" y="8.684"/><use xlink:href="#45" y="10.855"/><use xlink:href="#46" y="13.026"/><use xlink:href="#39" y="15.197"/><use xlink:href="#47" y="17.368"/><use xlink:href="#48" y="19.539"/><use xlink:href="#49" y="21.71"/><use xlink:href="#43" y="23.881"/><use xlink:href="#44" y="26.052"/><use xlink:href="#50" y="28.223"/><use xlink:href="#51" y="30.394"/><use xlink:href="#52" y="32.565"/><use xlink:href="#39" y="34.736"/><use xlink:href="#47" y="36.907"/><use xlink:href="#48" y="39.078"/><use xlink:href="#53" y="41.249"/><use xlink:href="#43" y="43.42"/><use xlink:href="#44" y="45.591"/><use xlink:href="#50" y="47.762"/><use xlink:href="#54" y="49.933"/><use xlink:href="#39" y="52.104"/><use xlink:href="#55" y="54.275"/><use xlink:href="#48" y="56.446"/><use xlink:href="#56" y="58.617"/><use xlink:href="#57" y="60.788"/><use xlink:href="#58" y="62.959"/><use xlink:href="#59" y="65.13"/><use xlink:href="#60" y="67.301"/><use xlink:href="#61" y="69.472"/><use xlink:href="#62" y="71.643"/><use xlink:href="#57" y="73.814"/><use xlink:href="#63" y="75.985"/><use xlink:href="#64" y="78.156"/><use xlink:href="#65" y="82.498"/></svg><svg x="2640"><use xlink:href="#a"/><use xlink:href="#b" x="-.004" y="84.644"/><use xlink:href="#41"/><use xlink:href="#42" y="2.171"/><use xlink:href="#43" y="4.342"/><use xlink:href="#44" y="6.513"/><use xlink:href="#45" y="8.684"/><use xlink:href="#46" y="10.855"/><use xlink:href="#39" y="13.026"/><use xlink:href="#47" y="15.197"/><use xlink:href="#48" y="17.368"/><use xlink:href="#49" y="19.539"/><use xlink:href="#43" y="21.71"/><use xlink:href="#44" y="23.881"/><use xlink:href="#50" y="26.052"/><use xlink:href="#51" y="28.223"/><use xlink:href="#52" y="30.394"/><use xlink:href="#39" y="32.565"/><use xlink:href="#47" y="34.736"/><use xlink:href="#48" y="36.907"/><use xlink:href="#53" y="39.078"/><use xlink:href="#43" y="41.249"/><use xlink:href="#44" y="43.42"/><use xlink:href="#50" y="45.591"/><use xlink:href="#54" y="47.762"/><use xlink:href="#39" y="49.933"/><use xlink:href="#55" y="52.104"/><use xlink:href="#48" y="54.275"/><use xlink:href="#56" y="56.446"/><use xlink:href="#57" y="58.617"/><use xlink:href="#58" y="60.788"/><use xlink:href="#59" y="62.959"/><use xlink:href="#60" y="65.13"/><use xlink:href="#61" y="67.301"/><use xlink:href="#62" y="69.472"/><use xlink:href="#57" y="71.643"/><use xlink:href="#63" y="73.814"/><use xlink:href="#64" y="75.985"/><use xlink:href="#65" y="80.327"/><use xlink:href="#11" y="82.498"/></svg><svg x="2760"><use xlink:href="#a"/><use xlink:href="#b" x="-.004" y="84.644"/><use xlink:href="#54"/><use xlink:href="#39" y="2.171"/><use xlink:href="#55" y="4.342"/><use xlink:href="#48" y="6.513"/><use xlink:href="#56" y="8.684"/><use xlink:href="#57" y="10.855"/><use xlink:href="#58" y="13.026"/><use xlink:href="#59" y="15.197"/><use xlink:href="#60" y="17.368"/><use xlink:href="#61" y="19.539"/><use xlink:href="#62" y="21.71"/><use xlink:href="#57" y="23.881"/><use xlink:href="#63" y="26.052"/><use xlink:href="#64" y="28.223"/><use xlink:href="#65" y="32.565"/><use xlink:href="#11" y="34.736"/><use xlink:href="#12" y="36.907"/><use xlink:href="#14" y="39.078"/><use xlink:href="#66" y="41.249"/><use xlink:href="#16" y="43.42"/><use xlink:href="#23" y="45.591"/><use xlink:href="#24" y="47.762"/><use xlink:href="#25" y="49.933"/><use xlink:href="#67" y="52.104"/><use xlink:href="#68" y="54.275"/><use xlink:href="#69" y="56.446"/><use xlink:href="#70" y="58.617"/><use xlink:href="#71" y="60.788"/><use xlink:href="#72" y="62.959"/><use xlink:href="#28" y="65.13"/><use xlink:href="#27" y="67.301"/><use xlink:href="#73" y="69.472"/><use xlink:href="#74" y="71.643"/><use xlink:href="#75" y="73.814"/><use xlink:href="#76" y="75.985"/><use xlink:href="#77" y="78.156"/><use xlink:href="#78" y="80.327"/><use xlink:href="#18" y="82.498"/></svg><svg x="2880"><use xlink:href="#a"/><use xlink:href="#b" x="-.004" y="84.644"/><use xlink:href="#48"/><use xlink:href="#56" y="2.171"/><use xlink:href="#57" y="4.342"/><use xlink:href="#58" y="6.513"/><use xlink:href="#59" y="8.684"/><use xlink:href="#60" y="10.855"/><use xlink:href="#61" y="13.026"/><use xlink:href="#62" y="15.197"/><use xlink:href="#57" y="17.368"/><use xlink:href="#63" y="19.539"/><use xlink:href="#64" y="21.71"/><use xlink:href="#65" y="26.052"/><use xlink:href="#11" y="28.223"/><use xlink:href="#12" y="30.394"/><use xlink:href="#14" y="32.565"/><use xlink:href="#66" y="34.736"/><use xlink:href="#16" y="36.907"/><use xlink:href="#23" y="39.078"/><use xlink:href="#24" y="41.249"/><use xlink:href="#25" y="43.42"/><use xlink:href="#67" y="45.591"/><use xlink:href="#68" y="47.762"/><use xlink:href="#69" y="49.933"/><use xlink:href="#70" y="52.104"/><use xlink:href="#71" y="54.275"/><use xlink:href="#72" y="56.446"/><use xlink:href="#28" y="58.617"/><use xlink:href="#27" y="60.788"/><use xlink:href="#73" y="62.959"/><use xlink:href="#74" y="65.13"/><use xlink:href="#75" y="67.301"/><use xlink:href="#76" y="69.472"/><use xlink:href="#77" y="71.643"/><use xlink:href="#78" y="73.814"/><use xlink:href="#18" y="75.985"/><use xlink:href="#79" y="78.156"/><use xlink:href="#80" y="82.498"/></svg><svg x="3000"><use xlink:href="#a"/><use xlink:href="#b" x="-.004" y="84.644"/><use xlink:href="#56"/><use xlink:href="#57" y="2.171"/><use xlink:href="#58" y="4.342"/><use xlink:href="#59" y="6.513"/><use xlink:href="#60" y="8.684"/><use xlink:href="#61" y="10.855"/><use xlink:href="#62" y="13.026"/><use xlink:href="#57" y="15.197"/><use xlink:href="#63" y="17.368"/><use xlink:href="#64" y="19.539"/><use xlink:href="#65" y="23.881"/><use xlink:href="#11" y="26.052"/><use xlink:href="#12" y="28.223"/><use xlink:href="#14" y="30.394"/><use xlink:href="#66" y="32.565"/><use xlink:href="#16" y="34.736"/><use xlink:href="#23" y="36.907"/><use xlink:href="#24" y="39.078"/><use xlink:href="#25" y="41.249"/><use xlink:href="#67" y="43.42"/><use xlink:href="#68" y="45.591"/><use xlink:href="#69" y="47.762"/><use xlink:href="#70" y="49.933"/><use xlink:href="#71" y="52.104"/><use xlink:href="#72" y="54.275"/><use xlink:href="#28" y="56.446"/><use xlink:href="#27" y="58.617"/><use xlink:href="#73" y="60.788"/><use xlink:href="#74" y="62.959"/><use xlink:href="#75" y="65.13"/><use xlink:href="#76" y="67.301"/><use xlink:href="#77" y="69.472"/><use xlink:href="#78" y="71.643"/><use xlink:href="#18" y="73.814"/><use xlink:href="#79" y="75.985"/><use xlink:href="#80" y="80.327"/><use xlink:href="#81" y="82.498"/></svg><svg x="3120"><use xlink:href="#a"/><use xlink:href="#b" x="-.004" y="84.644"/><use xlink:href="#57"/><use xlink:href="#58" y="2.171"/><use xlink:href="#59" y="4.342"/><use xlink:href="#60" y="6.513"/><use xlink:href="#61" y="8.684"/><use xlink:href="#62" y="10.855"/><use xlink:href="#57" y="13.026"/><use xlink:href="#63" y="15.197"/><use xlink:href="#64" y="17.368"/><use xlink:href="#65" y="21.71"/><use xlink:href="#11" y="23.881"/><use xlink:href="#12" y="26.052"/><use xlink:href="#14" y="28.223"/><use xlink:href="#66" y="30.394"/><use xlink:href="#16" y="32.565"/><use xlink:href="#23" y="34.736"/><use xlink:href="#24" y="36.907"/><use xlink:href="#25" y="39.078"/><use xlink:href="#67" y="41.249"/><use xlink:href="#68" y="43.42"/><use xlink:href="#69" y="45.591"/><use xlink:href="#70" y="47.762"/><use xlink:href="#71" y="49.933"/><use xlink:href="#72" y="52.104"/><use xlink:href="#28" y="54.275"/><use xlink:href="#27" y="56.446"/><use xlink:href="#73" y="58.617"/><use xlink:href="#74" y="60.788"/><use xlink:href="#75" y="62.959"/><use xlink:href="#76" y="65.13"/><use xlink:href="#77" y="67.301"/><use xlink:href="#78" y="69.472"/><use xlink:href="#18" y="71.643"/><use xlink:href="#79" y="73.814"/><use xlink:href="#80" y="78.156"/><use xlink:href="#81" y="80.327"/><text y="84.168" class="h">app</text><text x="4.008" y="84.168" class="h">telegraf</text></svg></svg></g></g></svg></svg>