<?xml version="1.0" encoding="utf-8"?>
<!-- Generator: Adobe Illustrator 24.0.1, SVG Export Plug-In . SVG Version: 6.00 Build 0)  -->
<svg version="1.1" id="Layer_1" xmlns="http://www.w3.org/2000/svg" xmlns:xlink="http://www.w3.org/1999/xlink" x="0px" y="0px"
	 viewBox="0 0 253.7 44" style="enable-background:new 0 0 253.7 44;" xml:space="preserve">
<style type="text/css">
	.st0{enable-background:new    ;}
	.st1{fill:#FFFFFF;}
	.st2{clip-path:url(#SVGID_2_);}
	.st3{fill:#CC0000;}
</style>
<title>logo</title>
<g class="st0">
	<path class="st1" d="M50.8,11c0-2.6,1.2-5.4,4.6-5.4s4.6,2.8,4.6,5.4s-1.2,5.4-4.6,5.4S50.8,13.5,50.8,11z M58.3,11
		c0-1.8-0.8-3.9-3-3.9s-3,2.2-3,3.9c0,1.8,0.8,3.9,3,3.9S58.3,12.7,58.3,11z"/>
	<path class="st1" d="M62.2,5.7h4.2c2.6,0,3.5,1.6,3.5,3.2c0,1.5-1,3.2-3.5,3.2h-2.7v4.1h-1.6V5.7z M68.3,8.9c0-0.7-0.4-1.7-1.8-1.7
		h-2.7v3.4h2.7C67.9,10.6,68.3,9.7,68.3,8.9z"/>
</g>
<g class="st0">
	<path class="st1" d="M71.8,5.7h6.5v1.5h-5v2.9h3.2v1.5h-3.2v3.2h5.3v1.5h-6.8V5.7z"/>
</g>
<g class="st0">
	<path class="st1" d="M80.9,5.7h4.4c2.6,0,3.4,1.5,3.4,3.1c0,1.2-0.7,2.5-2.3,3l2.2,4.4h-1.8l-2.1-4.3h-2.3v4.3h-1.6V5.7z
		 M85.3,10.4c1.3,0,1.7-0.8,1.7-1.6c0-0.7-0.4-1.6-1.7-1.6h-2.9v3.2H85.3z"/>
</g>
<g class="st0">
	<path class="st1" d="M96.2,13.8H92l-0.9,2.4h-1.6l3.8-10.5h1.6l3.8,10.5h-1.6L96.2,13.8z M94.5,8.8c-0.1-0.3-0.3-0.8-0.4-1.2
		C94,8,93.9,8.5,93.8,8.8l-1.3,3.6h3.3L94.5,8.8z"/>
</g>
<g class="st0">
	<path class="st1" d="M101.8,16.2h-1.6v-9h-3V5.7h7.5v1.5h-3V16.2z"/>
</g>
<g class="st0">
	<path class="st1" d="M105.3,11c0-2.6,1.2-5.4,4.6-5.4s4.6,2.8,4.6,5.4s-1.2,5.4-4.6,5.4S105.3,13.5,105.3,11z M112.8,11
		c0-1.8-0.8-3.9-3-3.9s-3,2.2-3,3.9c0,1.8,0.8,3.9,3,3.9S112.8,12.7,112.8,11z"/>
</g>
<g class="st0">
	<path class="st1" d="M116.8,5.7h4.4c2.6,0,3.4,1.5,3.4,3.1c0,1.2-0.7,2.5-2.3,3l2.2,4.4h-1.8l-2.1-4.3h-2.3v4.3h-1.6V5.7z
		 M121.2,10.4c1.3,0,1.7-0.8,1.7-1.6c0-0.7-0.4-1.6-1.7-1.6h-2.9v3.2H121.2z"/>
</g>
<g class="st0">
	<path class="st1" d="M51.5,19.8h2.4v11.7h6.8v2.3h-9.2V19.8z"/>
	<path class="st1" d="M62.9,19.8h2.4v14h-2.4V19.8z"/>
	<path class="st1" d="M68.8,19.8h9v2.3h-6.6v3.4h4.2v2.3h-4.2v6.1h-2.4V19.8z"/>
</g>
<g class="st0">
	<path class="st1" d="M80.1,19.8h9.1v2.3h-6.7v3.4h4.1v2.3h-4.1v3.8h7.2v2.3h-9.6V19.8z"/>
</g>
<g class="st0">
	<path class="st1" d="M91.4,26.8c0-3.2,1.5-7.2,5.9-7.2c2.7,0,4.3,1.5,4.9,3l-2.2,1c-0.7-1.1-1.4-1.7-2.7-1.7
		c-2.6,0-3.4,2.7-3.4,4.9c0,2.3,1,4.9,3.4,4.9c1.3,0,2-0.7,2.7-1.8l2.2,0.8c-0.9,1.9-2.4,3.3-4.9,3.3C92.9,34,91.4,30.3,91.4,26.8z"
		/>
</g>
<g class="st0">
	<path class="st1" d="M108.5,28.3l-5-8.5h2.7l3.5,6.1l3.5-6.1h2.7l-5.1,8.5v5.5h-2.4V28.3z"/>
</g>
<g class="st0">
	<path class="st1" d="M116.6,26.8c0-3.2,1.5-7.2,5.9-7.2c2.7,0,4.3,1.5,4.9,3l-2.2,1c-0.7-1.1-1.4-1.7-2.7-1.7
		c-2.6,0-3.4,2.7-3.4,4.9c0,2.3,1,4.9,3.4,4.9c1.3,0,2-0.7,2.7-1.8l2.2,0.8c-0.9,1.9-2.4,3.3-4.9,3.3
		C118.1,34,116.6,30.3,116.6,26.8z"/>
	<path class="st1" d="M130,19.8h2.4v11.7h6.8v2.3H130V19.8z"/>
	<path class="st1" d="M141.3,19.8h9.1v2.3h-6.7v3.4h4.1v2.3h-4.1v3.8h7.2v2.3h-9.6V19.8z"/>
</g>
<g class="st0">
	<path class="st1" d="M168.8,33.8v-7.4c0-0.5,0-1.3,0.1-1.7c-0.2,0.5-0.4,1.2-0.6,1.7l-3.4,7.6l-3.4-7.7c-0.2-0.5-0.5-1.1-0.7-1.7
		c0,0.4,0.1,1.2,0.1,1.7v7.4h-2.4v-14h2.4l3.6,8.2c0.1,0.3,0.3,0.7,0.4,1c0.1-0.3,0.2-0.7,0.4-1l3.6-8.2h2.3v14H168.8z"/>
	<path class="st1" d="M182.4,30.7h-5.5l-1.1,3.1h-2.5l5.2-14h2.4l5.2,14h-2.5L182.4,30.7z M180.1,24.4c-0.2-0.4-0.4-1-0.5-1.4
		c-0.1,0.4-0.3,1-0.5,1.4l-1.6,4.2h4L180.1,24.4z"/>
	<path class="st1" d="M196.7,33.8l-5.8-8.8c-0.2-0.3-0.4-0.7-0.6-1c0,0.3,0.1,0.7,0.1,1v8.8H188v-14h2.3l5.7,8.7
		c0.2,0.3,0.4,0.7,0.6,1.1c0-0.4-0.1-0.8-0.1-1.1v-8.7h2.4v14H196.7z"/>
</g>
<g class="st0">
	<path class="st1" d="M210.6,30.7h-5.5l-1.1,3.1h-2.5l5.2-14h2.4l5.2,14h-2.5L210.6,30.7z M208.3,24.4c-0.2-0.4-0.4-1-0.5-1.4
		c-0.1,0.4-0.3,1-0.5,1.4l-1.6,4.2h4L208.3,24.4z"/>
</g>
<g class="st0">
	<path class="st1" d="M215.3,26.8c0-3.4,1.9-7.2,6.1-7.2c2.7,0,4,1.4,4.9,2.8l-2.1,1.2c-0.6-0.9-1.4-1.7-2.8-1.7
		c-2.8,0-3.7,2.7-3.7,4.9c0,2.5,1.1,4.9,3.7,4.9c1.6,0,2.7-1.2,2.7-2.6v-0.2h-2.5v-2.3h4.9v1.9c0,3.6-2.2,5.5-5.1,5.5
		C217.1,34,215.3,30.5,215.3,26.8z"/>
	<path class="st1" d="M229.4,19.8h9.1v2.3h-6.7v3.4h4.1v2.3h-4.1v3.8h7.2v2.3h-9.6V19.8z"/>
	<path class="st1" d="M241.7,19.8h6.2c3.5,0,4.6,2.1,4.6,4.3c0,1.6-0.9,3.4-2.9,4l2.8,5.7h-2.7l-2.7-5.5h-2.9v5.5h-2.4V19.8z
		 M247.9,26c1.6,0,2.1-1,2.1-2c0-0.9-0.4-2-2.1-2h-3.8v4H247.9z"/>
</g>
<g>
	<defs>
		<rect id="SVGID_1_" width="44" height="44"/>
	</defs>
	<clipPath id="SVGID_2_">
		<use xlink:href="#SVGID_1_"  style="overflow:visible;"/>
	</clipPath>
	<g class="st2">
		<g>
			<circle class="st3" cx="22.3" cy="22" r="21.8"/>
			<path class="st1" d="M27.1,3.4L9.3,26.2l12.9,0.1c0.4,0,0.8,0.4,0.6,0.9l-3.4,13c-0.1,0.4,0.4,0.6,0.6,0.3l15.1-19.9
				c0.1-0.2,0-0.5-0.3-0.5H22.7c-0.6,0-1-0.6-0.8-1.1l5.3-14.5L27.1,3.4z"/>
		</g>
	</g>
</g>
</svg>
